# Blender 5.2.2 LTS
# www.blender.org
mtllib PlaceholderFire.mtl
o Cube
v -0.000000 0.130786 -1.160149
v 0.750613 0.130786 0.882442
v -0.750613 0.130786 0.882442
v 0.732845 0.130786 0.045420
v -0.732845 0.130786 0.045420
v -0.000000 0.130786 1.936772
v -0.510716 0.130786 -0.500000
v -0.335338 0.130786 -0.774557
v 0.335338 0.130786 -0.774557
v 0.510716 0.130786 -0.500000
v -0.630518 0.130786 1.282954
v -0.390664 0.130786 1.623403
v 0.390664 0.130786 1.623403
v 0.630518 0.130786 1.282954
v 0.784419 0.130786 0.500000
v -0.784419 0.130786 0.500000
vn -0.0000 1.0000 -0.0000
vt 0.625000 0.625000
vt 0.875000 0.625000
vt 0.875000 0.687500
vt 0.625000 0.687500
vt 0.625000 0.750000
vt 0.875000 0.750000
vt 0.875000 0.500000
vt 0.875000 0.531250
vt 0.625000 0.531250
vt 0.875000 0.562500
vt 0.625000 0.562500
s 0
usemtl Material
f 4/1/1 5/2/1 16/3/1 15/4/1
f 13/5/1 12/6/1 6/5/1
f 1/7/1 8/8/1 9/9/1
f 9/9/1 8/8/1 7/10/1 10/11/1
f 10/11/1 7/10/1 5/2/1 4/1/1
f 14/5/1 11/6/1 12/6/1 13/5/1
f 2/5/1 3/6/1 11/6/1 14/5/1
f 15/4/1 16/3/1 3/6/1 2/5/1
