# Blender 5.2.2 LTS
# www.blender.org
mtllib PlaceholderBlast.mtl
o Cube
v -2.685938 2.216200 -2.216200
v -2.685938 -2.216200 -2.216200
v -2.685938 2.216200 2.216200
v -2.685938 -2.216200 2.216200
v -1.931415 1.627890 -2.216200
v -1.312946 0.738733 -2.216200
v -1.296744 -0.000000 -2.216200
v -1.312946 -0.738733 -2.216200
v -1.931416 -1.627890 -2.216200
v -1.931415 1.627890 2.216200
v -1.312946 0.738733 2.216200
v -1.296744 -0.000000 2.216200
v -1.312946 -0.738733 2.216200
v -1.931416 -1.627890 2.216200
v -2.124178 2.216200 -1.477467
v -1.869430 2.216200 -0.738733
v -1.853283 2.216200 0.000000
v -1.869430 2.216200 0.738733
v -2.124178 2.216200 1.477467
v -2.124178 -2.216200 1.477467
v -1.869430 -2.216200 0.738733
v -1.853283 -2.216200 -0.000000
v -1.869430 -2.216200 -0.738734
v -2.124178 -2.216200 -1.477467
v -0.877594 -1.627890 -1.477467
v -0.663362 -1.627890 -0.738733
v -0.628292 -1.627890 0.000000
v -0.663362 -1.627890 0.738733
v -0.877594 -1.627890 1.477467
v -0.456611 -0.738733 -1.477467
v -0.058048 -0.738733 -0.738733
v 0.070097 -0.738733 0.000000
v -0.058048 -0.738733 0.738733
v -0.456611 -0.738733 1.477467
v -0.424342 -0.000000 -1.477467
v 0.070083 -0.000000 -0.738733
v 0.213764 -0.000000 0.000000
v 0.070083 -0.000000 0.738733
v -0.424342 -0.000000 1.477467
v -0.456610 0.738733 -1.477467
v -0.058048 0.738733 -0.738733
v 0.070097 0.738733 0.000000
v -0.058048 0.738733 0.738733
v -0.456611 0.738733 1.477467
v -0.877593 1.627890 -1.477467
v -0.663362 1.627890 -0.738733
v -0.628291 1.627890 0.000000
v -0.663362 1.627890 0.738733
v -0.877593 1.627890 1.477467
vn 0.4433 0.7540 -0.4848
vn 0.4433 -0.7540 -0.4848
vn 0.4433 0.7540 0.4848
vn 0.4433 -0.7540 0.4848
vn 0.5006 0.6376 -0.5856
vn 0.6161 0.2021 -0.7613
vn 0.6497 -0.0000 -0.7602
vn 0.6161 -0.2021 -0.7613
vn 0.5006 -0.6376 -0.5856
vn 0.5006 0.6376 0.5856
vn 0.6161 0.2021 0.7613
vn 0.6497 -0.0000 0.7602
vn 0.6161 -0.2021 0.7613
vn 0.5006 -0.6376 0.5856
vn 0.4452 0.8193 -0.3612
vn 0.4325 0.8980 -0.0813
vn 0.4357 0.9001 -0.0000
vn 0.4325 0.8980 0.0813
vn 0.4452 0.8193 0.3612
vn 0.4452 -0.8193 0.3612
vn 0.4325 -0.8980 0.0813
vn 0.4357 -0.9001 -0.0000
vn 0.4325 -0.8980 -0.0813
vn 0.4452 -0.8193 -0.3612
vn 0.6175 -0.6384 -0.4596
vn 0.6608 -0.7342 -0.1560
vn 0.6440 -0.7650 -0.0000
vn 0.6608 -0.7342 0.1560
vn 0.6175 -0.6384 0.4596
vn 0.7641 -0.2416 -0.5981
vn 0.8945 -0.3411 -0.2891
vn 0.9217 -0.3879 -0.0000
vn 0.8945 -0.3411 0.2891
vn 0.7641 -0.2416 0.5981
vn 0.7642 -0.0000 -0.6450
vn 0.9372 -0.0000 -0.3488
vn 1.0000 -0.0000 -0.0000
vn 0.9372 -0.0000 0.3488
vn 0.7642 -0.0000 0.6450
vn 0.7641 0.2416 -0.5981
vn 0.8945 0.3411 -0.2891
vn 0.9217 0.3879 -0.0000
vn 0.8945 0.3411 0.2891
vn 0.7641 0.2416 0.5981
vn 0.6175 0.6384 -0.4596
vn 0.6608 0.7342 -0.1560
vn 0.6440 0.7650 -0.0000
vn 0.6608 0.7342 0.1560
vn 0.6175 0.6384 0.4596
vt 0.583333 0.708333
vt 0.625000 0.708333
vt 0.625000 0.750000
vt 0.583333 0.750000
vt 0.375000 0.708333
vt 0.416667 0.708333
vt 0.416667 0.750000
vt 0.375000 0.750000
vt 0.458333 0.708333
vt 0.458333 0.750000
vt 0.500000 0.708333
vt 0.500000 0.750000
vt 0.541667 0.708333
vt 0.541667 0.750000
vt 0.375000 0.500000
vt 0.416667 0.500000
vt 0.416667 0.541667
vt 0.375000 0.541667
vt 0.416667 0.583333
vt 0.375000 0.583333
vt 0.416667 0.625000
vt 0.375000 0.625000
vt 0.416667 0.666667
vt 0.375000 0.666667
vt 0.458333 0.500000
vt 0.458333 0.541667
vt 0.458333 0.583333
vt 0.458333 0.625000
vt 0.458333 0.666667
vt 0.500000 0.500000
vt 0.500000 0.541667
vt 0.500000 0.583333
vt 0.500000 0.625000
vt 0.500000 0.666667
vt 0.541667 0.500000
vt 0.541667 0.541667
vt 0.541667 0.583333
vt 0.541667 0.625000
vt 0.541667 0.666667
vt 0.583333 0.500000
vt 0.583333 0.541667
vt 0.583333 0.583333
vt 0.583333 0.625000
vt 0.583333 0.666667
vt 0.625000 0.500000
vt 0.625000 0.541667
vt 0.625000 0.583333
vt 0.625000 0.625000
vt 0.625000 0.666667
s 1
usemtl Material
f 49/1/49 19/2/19 3/3/3 10/4/10
f 20/5/20 29/6/29 14/7/14 4/8/4
f 29/6/29 34/9/34 13/10/13 14/7/14
f 34/9/34 39/11/39 12/12/12 13/10/13
f 39/11/39 44/13/44 11/14/11 12/12/12
f 44/13/44 49/1/49 10/4/10 11/14/11
f 2/15/2 9/16/9 25/17/25 24/18/24
f 24/18/24 25/17/25 26/19/26 23/20/23
f 23/20/23 26/19/26 27/21/27 22/22/22
f 22/22/22 27/21/27 28/23/28 21/24/21
f 21/24/21 28/23/28 29/6/29 20/5/20
f 9/16/9 8/25/8 30/26/30 25/17/25
f 25/17/25 30/26/30 31/27/31 26/19/26
f 26/19/26 31/27/31 32/28/32 27/21/27
f 27/21/27 32/28/32 33/29/33 28/23/28
f 28/23/28 33/29/33 34/9/34 29/6/29
f 8/25/8 7/30/7 35/31/35 30/26/30
f 30/26/30 35/31/35 36/32/36 31/27/31
f 31/27/31 36/32/36 37/33/37 32/28/32
f 32/28/32 37/33/37 38/34/38 33/29/33
f 33/29/33 38/34/38 39/11/39 34/9/34
f 7/30/7 6/35/6 40/36/40 35/31/35
f 35/31/35 40/36/40 41/37/41 36/32/36
f 36/32/36 41/37/41 42/38/42 37/33/37
f 37/33/37 42/38/42 43/39/43 38/34/38
f 38/34/38 43/39/43 44/13/44 39/11/39
f 6/35/6 5/40/5 45/41/45 40/36/40
f 40/36/40 45/41/45 46/42/46 41/37/41
f 41/37/41 46/42/46 47/43/47 42/38/42
f 42/38/42 47/43/47 48/44/48 43/39/43
f 43/39/43 48/44/48 49/1/49 44/13/44
f 5/40/5 1/45/1 15/46/15 45/41/45
f 45/41/45 15/46/15 16/47/16 46/42/46
f 46/42/46 16/47/16 17/48/17 47/43/47
f 47/43/47 17/48/17 18/49/18 48/44/48
f 48/44/48 18/49/18 19/2/19 49/1/49
